<svg width="14" height="14" viewBox="0 0 14 14" fill="none" xmlns="http://www.w3.org/2000/svg">
<g id="Arrow - Up Square">
<path id="Arrow - Up Square_2" fill-rule="evenodd" clip-rule="evenodd" d="M13.6666 4.28065V9.72732C13.6666 12.0807 12.1526 13.6673 9.89325 13.6673H4.11325C1.85325 13.6673 0.333252 12.0807 0.333252 9.72732V4.28065C0.333252 1.92065 1.85325 0.333984 4.11325 0.333984H9.89325C12.1526 0.333984 13.6666 1.92065 13.6666 4.28065ZM6.49992 5.48732V9.72065C6.49992 10.0007 6.72659 10.2207 6.99992 10.2207C7.27992 10.2207 7.49992 10.0007 7.49992 9.72065V5.48732L9.14659 7.14065C9.23992 7.23398 9.37325 7.28732 9.49992 7.28732C9.62592 7.28732 9.75325 7.23398 9.85325 7.14065C10.0466 6.94732 10.0466 6.62732 9.85325 6.43398L7.35325 3.92065C7.16659 3.73398 6.83325 3.73398 6.64659 3.92065L4.14659 6.43398C3.95325 6.62732 3.95325 6.94732 4.14659 7.14065C4.34659 7.33398 4.65992 7.33398 4.85992 7.14065L6.49992 5.48732Z" fill="#6AAA43"/>
</g>
</svg>
