<svg width="20" height="20" viewBox="0 0 20 20" fill="none" xmlns="http://www.w3.org/2000/svg">
<g id="cup">
<g id="vuesax/linear/cup">
<g id="cup_2">
<path id="Vector" d="M10.125 13.75V15.5" stroke="#ADB4BF" stroke-width="1.2" stroke-linecap="round" stroke-linejoin="round"/>
<path id="Vector_2" d="M5.9585 18.3333H14.2918V17.4999C14.2918 16.5833 13.5418 15.8333 12.6252 15.8333H7.62516C6.7085 15.8333 5.9585 16.5833 5.9585 17.4999V18.3333V18.3333Z" stroke="#ADB4BF" stroke-width="1.2" stroke-miterlimit="10"/>
<path id="Vector_3" d="M5.125 18.3333H15.125" stroke="#ADB4BF" stroke-width="1.2" stroke-linecap="round" stroke-linejoin="round"/>
<path id="Vector_4" d="M9.99984 13.3334C6.77484 13.3334 4.1665 10.7251 4.1665 7.50008V5.00008C4.1665 3.15841 5.65817 1.66675 7.49984 1.66675H12.4998C14.3415 1.66675 15.8332 3.15841 15.8332 5.00008V7.50008C15.8332 10.7251 13.2248 13.3334 9.99984 13.3334Z" stroke="#ADB4BF" stroke-width="1.2" stroke-linecap="round" stroke-linejoin="round"/>
<path id="Vector_5" d="M4.55853 9.70833C3.93353 9.50833 3.38353 9.14167 2.9502 8.70833C2.2002 7.875 1.7002 6.875 1.7002 5.70833C1.7002 4.54167 2.61686 3.625 3.78353 3.625H4.3252C4.15853 4.00833 4.0752 4.43333 4.0752 4.875V7.375C4.0752 8.20833 4.2502 8.99167 4.55853 9.70833Z" stroke="#ADB4BF" stroke-width="1.2" stroke-linecap="round" stroke-linejoin="round"/>
<path id="Vector_6" d="M15.4419 9.70833C16.0669 9.50833 16.6169 9.14167 17.0502 8.70833C17.8002 7.875 18.3002 6.875 18.3002 5.70833C18.3002 4.54167 17.3836 3.625 16.2169 3.625H15.6752C15.8419 4.00833 15.9252 4.43333 15.9252 4.875V7.375C15.9252 8.20833 15.7502 8.99167 15.4419 9.70833Z" stroke="#ADB4BF" stroke-width="1.2" stroke-linecap="round" stroke-linejoin="round"/>
</g>
</g>
</g>
</svg>
