<svg width="20" height="20" viewBox="0 0 20 20" fill="none" xmlns="http://www.w3.org/2000/svg">
<g id="vuesax/linear/eye">
<g id="eye">
<path id="Vector" d="M12.9833 9.99993C12.9833 11.6499 11.6499 12.9833 9.99993 12.9833C8.34993 12.9833 7.0166 11.6499 7.0166 9.99993C7.0166 8.34993 8.34993 7.0166 9.99993 7.0166C11.6499 7.0166 12.9833 8.34993 12.9833 9.99993Z" stroke="#57617E" stroke-width="1.4" stroke-linecap="round" stroke-linejoin="round"/>
<path id="Vector_2" d="M9.99987 16.8919C12.9415 16.8919 15.6832 15.1586 17.5915 12.1586C18.3415 10.9836 18.3415 9.00855 17.5915 7.83355C15.6832 4.83355 12.9415 3.10022 9.99987 3.10022C7.0582 3.10022 4.31654 4.83355 2.4082 7.83355C1.6582 9.00855 1.6582 10.9836 2.4082 12.1586C4.31654 15.1586 7.0582 16.8919 9.99987 16.8919Z" stroke="#57617E" stroke-width="1.4" stroke-linecap="round" stroke-linejoin="round"/>
</g>
</g>
</svg>
