<svg width="20" height="20" viewBox="0 0 20 20" fill="none" xmlns="http://www.w3.org/2000/svg">
<g id="vuesax/linear/layer">
<g id="layer">
<path id="Vector" d="M10.8417 2.43333L15.7583 4.61667C17.175 5.24167 17.175 6.275 15.7583 6.9L10.8417 9.08333C10.2833 9.33333 9.36666 9.33333 8.80833 9.08333L3.89166 6.9C2.475 6.275 2.475 5.24167 3.89166 4.61667L8.80833 2.43333C9.36666 2.18333 10.2833 2.18333 10.8417 2.43333Z" stroke="#ADB4BF" stroke-width="1.2" stroke-linecap="round" stroke-linejoin="round"/>
<path id="Vector_2" d="M2.5 9.16666C2.5 9.86666 3.025 10.675 3.66667 10.9583L9.325 13.475C9.75833 13.6667 10.25 13.6667 10.675 13.475L16.3333 10.9583C16.975 10.675 17.5 9.86666 17.5 9.16666" stroke="#ADB4BF" stroke-width="1.2" stroke-linecap="round" stroke-linejoin="round"/>
<path id="Vector_3" d="M2.5 13.3333C2.5 14.1083 2.95833 14.8083 3.66667 15.125L9.325 17.6417C9.75833 17.8333 10.25 17.8333 10.675 17.6417L16.3333 15.125C17.0417 14.8083 17.5 14.1083 17.5 13.3333" stroke="#ADB4BF" stroke-width="1.2" stroke-linecap="round" stroke-linejoin="round"/>
</g>
</g>
</svg>
