<svg width="20" height="20" viewBox="0 0 20 20" fill="none" xmlns="http://www.w3.org/2000/svg">
<g id="vuesax/linear/trash">
<g id="trash">
<path id="Vector" d="M17.5 4.98429C14.725 4.70929 11.9333 4.56763 9.15 4.56763C7.5 4.56763 5.85 4.65096 4.2 4.81763L2.5 4.98429" stroke="#3282C4" stroke-width="1.4" stroke-linecap="round" stroke-linejoin="round"/>
<path id="Vector_2" d="M7.0835 4.14272L7.26683 3.05106C7.40016 2.25939 7.50016 1.66772 8.9085 1.66772H11.0918C12.5002 1.66772 12.6085 2.29272 12.7335 3.05939L12.9168 4.14272" stroke="#3282C4" stroke-width="1.4" stroke-linecap="round" stroke-linejoin="round"/>
<path id="Vector_3" d="M15.7082 7.61768L15.1665 16.0093C15.0748 17.3177 14.9998 18.3343 12.6748 18.3343H7.32484C4.99984 18.3343 4.92484 17.3177 4.83317 16.0093L4.2915 7.61768" stroke="#3282C4" stroke-width="1.4" stroke-linecap="round" stroke-linejoin="round"/>
<path id="Vector_4" d="M8.6084 13.751H11.3834" stroke="#3282C4" stroke-width="1.4" stroke-linecap="round" stroke-linejoin="round"/>
<path id="Vector_5" d="M7.9165 10.4177H12.0832" stroke="#3282C4" stroke-width="1.4" stroke-linecap="round" stroke-linejoin="round"/>
</g>
</g>
</svg>
