<svg width="80" height="80" viewBox="0 0 80 80" fill="none" xmlns="http://www.w3.org/2000/svg">
<rect width="80" height="80" fill="#8D8D8D"/>
<g id=" Pop up">
<rect id="Rectangle 4" x="-187" y="-31" width="454" height="295" rx="10" fill="white"/>
<g id="Frame 1171276884">
<g id="Frame 1171276883">
<g id="warning 1">
<g id="Group">
<path id="Vector" d="M72 22.5L57.5 8C55.5 6 53 5 50.25 5H29.5C27 5 24.5 6 22.5 8L8 22.5C6 24.5 5 27 5 29.75V50.5C5 53.25 6 55.75 8 57.5L22.5 72C24.5 73.75 27 75 29.5 75H50.25C53 75 55.5 74 57.25 72L72 57.25C73.75 55.25 75 52.75 75 50.25V29.5C75 27 74 24.5 72 22.5Z" fill="#FFC107"/>
<path id="Vector_2" d="M39.5 61.7504C33.75 62.0004 34.75 52.0004 40.25 53.2504C46 53.0004 45.25 63.0004 39.5 61.7504ZM40 48.0004C38.5 48.0004 37.75 47.2504 37.75 45.5004L36 22.5004C35.75 20.2504 37.5 18.2504 39.75 18.0004C42 17.7504 44 19.5004 44.25 21.7504V22.5004L42.5 45.5004C42.25 47.2504 41.5 48.0004 40 48.0004Z" fill="#EEEEEE"/>
</g>
</g>
</g>
</g>
</g>
</svg>
